<?xml version="1.0" encoding="UTF-8"?>
<svg version="1.1" xmlns="http://www.w3.org/2000/svg" width="1024" height="1024">
<path d="M0 0 C337.92 0 675.84 0 1024 0 C1024 337.92 1024 675.84 1024 1024 C686.08 1024 348.16 1024 0 1024 C0 686.08 0 348.16 0 0 Z " fill="#FEFEFE" transform="translate(0,0)"/>
<path d="M0 0 C8.06018959 6.07434578 13.33158267 13.94413129 15.42578125 23.828125 C15.51629861 25.54370862 15.55410764 27.26241891 15.55606651 28.98038769 C15.55969086 30.02782026 15.56331521 31.07525284 15.56704938 32.1544258 C15.56544701 33.87866687 15.56544701 33.87866687 15.56381226 35.63774109 C15.56663354 36.8598744 15.56945482 38.08200772 15.57236159 39.34117538 C15.57926207 42.73524935 15.58173397 46.12927545 15.58241272 49.52335298 C15.58425259 53.1833453 15.59185965 56.84332578 15.59889221 60.50331116 C15.61041895 66.84711751 15.61866278 73.19092121 15.62501144 79.53473473 C15.63533875 89.5644188 15.65590303 99.59406977 15.6781311 109.62373352 C15.6856109 113.05550278 15.69302464 116.48727219 15.70041847 119.91904163 C15.70226904 120.77670353 15.7041196 121.63436543 15.70602625 122.51801708 C15.72695486 132.28178355 15.74578197 142.04555369 15.76367188 151.80932617 C15.76531006 152.7018878 15.76694824 153.59444944 15.76863606 154.51405839 C15.79491245 168.97333825 15.8135607 183.43262066 15.83026378 197.89191427 C15.84769212 212.7393473 15.87654576 227.58673029 15.91515315 242.43412334 C15.93853642 251.59040707 15.95254622 260.7466092 15.95448078 269.90292303 C15.95659221 276.18052211 15.96953859 282.4580401 15.99096011 288.73560276 C16.0029722 292.35594426 16.0101518 295.97612478 16.00424767 299.59648514 C15.99795481 303.52562875 16.01480319 307.45448368 16.03378296 311.3835907 C16.02825326 312.52193114 16.02272357 313.66027157 16.01702631 314.83310717 C16.08157518 322.57671056 17.0625516 329.07955384 21.23828125 335.703125 C25.77092546 340.10626509 29.58188014 341.04994057 35.80078125 341.265625 C41.45929069 341.12351632 45.92676815 340.40189119 50.42578125 336.828125 C53.65115353 332.66635432 54.54986861 328.67771843 54.5532732 323.49634552 C54.55628085 322.63189961 54.5592885 321.7674537 54.56238729 320.87681246 C54.55976173 319.4591349 54.55976173 319.4591349 54.55708313 318.01281738 C54.55919884 317.00514549 54.56131456 315.99747359 54.56349438 314.95926619 C54.56950026 311.57244266 54.5684938 308.18565634 54.56762695 304.79882812 C54.57065813 302.374389 54.57417947 299.94995045 54.57815552 297.5255127 C54.58604928 292.29814154 54.59121181 287.07077479 54.59444618 281.84339905 C54.59994891 273.57294671 54.61685386 265.30253548 54.63578796 257.03210449 C54.64214481 254.20072181 54.64845328 251.36933902 54.65476513 248.53795624 C54.65634889 247.83032407 54.65793265 247.12269191 54.65956441 246.39361635 C54.67750061 238.33858573 54.6937258 230.2835522 54.70874023 222.22851562 C54.71011611 221.49225289 54.71149198 220.75599016 54.71290954 219.99741644 C54.73481244 208.08150472 54.74558919 196.16560362 54.75311098 184.24967533 C54.7611965 172.0046289 54.7845349 159.75967313 54.82106465 147.51467848 C54.84303257 139.96907996 54.85277187 132.42366816 54.84656432 124.8780393 C54.84299931 119.0852052 54.8603298 113.29257635 54.88524246 107.49980164 C54.89214339 105.13116443 54.89229271 102.76249602 54.88504219 100.39385986 C54.80348912 70.74783799 54.80348912 70.74783799 66.42578125 58.828125 C75.77077126 50.20585904 83.71589557 48.04281758 96.296875 48.4921875 C105.40592598 49.07295901 111.61162006 52.96237168 118.15625 59.1875 C124.13742356 66.14666236 127.54408239 74.34127871 127.55606651 83.51276875 C127.55969086 84.43044004 127.56331521 85.34811133 127.56704938 86.29359084 C127.56544701 87.79270178 127.56544701 87.79270178 127.56381226 89.32209778 C127.56663354 90.39061609 127.56945482 91.45913441 127.57236159 92.56003207 C127.5807059 96.14655539 127.5820457 99.73304784 127.58349609 103.31958008 C127.58816439 105.88858629 127.59330798 108.45759168 127.59889221 111.02659607 C127.61040873 116.56225732 127.61865783 122.09791554 127.62501144 127.63358498 C127.63534738 136.38608934 127.65591338 145.13855587 127.6781311 153.89103699 C127.6856105 156.88684165 127.69302427 159.88264647 127.70041847 162.87845135 C127.70226904 163.62710903 127.7041196 164.37576672 127.70602625 165.147111 C127.72694662 173.66618556 127.74577822 182.18526429 127.76367188 190.7043457 C127.76531006 191.48296078 127.76694824 192.26157586 127.76863606 193.06378534 C127.79491974 205.68071635 127.81356483 218.29765028 127.83026378 230.91459707 C127.84769253 243.87381058 127.87654533 256.83296676 127.91515315 269.79213446 C127.93853218 277.78229805 127.95254583 285.77236817 127.95448078 293.76256623 C127.95684206 299.8876223 127.97472535 306.01254336 127.99835014 312.13755226 C128.00554889 314.64816346 128.00764134 317.15879529 128.00424767 319.66941452 C128.000354 323.09754531 128.01480505 326.5251318 128.03378296 329.95320129 C128.02825326 330.94591642 128.02272357 331.93863154 128.01702631 332.96142894 C128.08265023 339.83197945 128.94665582 345.57961581 133.23828125 351.203125 C138.94757148 355.44431203 145.56396815 355.60677046 152.42578125 354.828125 C156.87865998 353.52412058 159.69382347 351.63713096 162.80078125 348.203125 C166.28071446 340.97557142 166.79196893 332.65093072 167.609375 324.74609375 C167.76092796 323.34379265 167.76092796 323.34379265 167.9155426 321.91316223 C168.23574313 318.94775717 168.55014761 315.981784 168.86328125 313.015625 C170.08718571 301.45459839 171.34567297 289.90747139 172.96875 278.39453125 C173.0861705 277.55166061 173.203591 276.70878998 173.3245697 275.84037781 C175.39278948 261.57194791 178.48645923 247.10655161 190.42578125 237.828125 C200.41946628 231.67188439 211.51076821 228.71033385 223.171875 231.48046875 C230.86647922 234.20930099 236.03328996 238.79011492 239.80078125 246.015625 C242.20995923 251.15869625 242.57732645 255.79326873 242.56958008 261.43725586 C242.57183027 262.2001272 242.57408047 262.96299854 242.57639885 263.7489872 C242.58091102 266.28452612 242.57644785 268.8199343 242.5703125 271.35546875 C242.56936899 272.23711134 242.56842548 273.11875393 242.56745338 274.02711296 C242.53583045 294.2185309 241.94285413 314.38437472 241.21501541 334.5610733 C241.11126123 337.44680821 241.0097419 340.33261512 240.90866089 343.21844482 C239.93453891 370.90682865 238.83758075 398.56992722 236.63543701 426.19262695 C236.41460523 428.96861428 236.19954299 431.74501491 235.98486328 434.52148438 C229.86823276 512.96293914 220.15114464 589.17085195 157.78515625 644.15625 C126.28451188 670.49889412 90.03540598 684.60026629 49.42578125 689.828125 C48.52762695 689.94526855 47.62947266 690.06241211 46.70410156 690.18310547 C-21.87359357 698.60207461 -97.94107146 686.81737518 -153.57421875 643.828125 C-169.05396121 631.627989 -183.43050395 618.37984502 -195.57421875 602.828125 C-196.74017578 601.38759766 -196.74017578 601.38759766 -197.9296875 599.91796875 C-208.54066404 586.57411749 -217.08631889 572.11715306 -224.94921875 557.015625 C-225.51995117 555.91976074 -226.09068359 554.82389648 -226.67871094 553.69482422 C-233.00583794 541.331196 -238.12871738 528.75050788 -242.41085815 515.56201172 C-243.69341996 511.61483813 -244.99933084 507.67535195 -246.30078125 503.734375 C-246.5697673 502.91791504 -246.83875336 502.10145508 -247.1158905 501.26025391 C-254.53872848 478.74810742 -262.31049582 456.35939934 -270.41333008 434.08349609 C-275.46095525 420.19994143 -280.3808187 406.27224351 -285.29730225 392.34179688 C-290.18460472 378.50032951 -295.12856685 364.68361919 -300.26416016 350.93212891 C-310.5008302 323.38204439 -310.5008302 323.38204439 -304.94921875 311.140625 C-301.73015034 305.98784059 -297.32887987 302.75762902 -291.57421875 300.828125 C-278.2334167 299.16294506 -267.15932644 304.0903791 -256.57421875 311.828125 C-227.83804565 334.2618476 -218.09671677 376.81615435 -206.13232422 409.56542969 C-204.08820671 415.15938114 -202.03628528 420.75003029 -199.94921875 426.328125 C-199.6550708 427.1329834 -199.36092285 427.9378418 -199.05786133 428.76708984 C-196.44241318 435.71052746 -193.46069363 441.38488756 -186.57421875 444.828125 C-181.48792042 445.47400415 -177.473227 445.24861559 -173.15694231 442.29099363 C-169.42412886 438.84085499 -168.72275529 433.54838502 -168.30220878 428.67787063 C-168.18555806 424.89090488 -168.17080607 421.11052806 -168.18894958 417.32249451 C-168.18493797 415.85612037 -168.17960901 414.38974935 -168.17308384 412.92338425 C-168.15897917 408.91154017 -168.16334895 404.89989947 -168.17079699 400.88804543 C-168.17554693 396.55465637 -168.16296446 392.22131347 -168.1524353 387.88793945 C-168.13647634 380.38412159 -168.13118278 372.8803577 -168.13296318 365.37652397 C-168.13534914 354.51861251 -168.11934303 343.66078712 -168.09851063 332.80289818 C-168.06500035 315.17402499 -168.04332823 297.54515952 -168.03051758 279.91625977 C-168.02936334 278.3345394 -168.02936334 278.3345394 -168.02818579 276.72086508 C-168.02508344 272.44816234 -168.02200063 268.17545958 -168.01894575 263.90275681 C-168.01041369 252.13837569 -167.99951282 240.37399724 -167.98754883 228.60961914 C-167.98648081 227.55612345 -167.98541279 226.50262775 -167.98431241 225.41720795 C-167.96622046 207.85195955 -167.94022971 190.28672952 -167.90941769 172.72149903 C-167.89086712 161.89045558 -167.87994815 151.05945337 -167.87889577 140.2283938 C-167.87779232 132.80899624 -167.86984314 125.38962697 -167.85651212 117.97024136 C-167.8490941 113.68978065 -167.84499847 109.40938182 -167.84963036 105.12891579 C-167.85383153 101.20899749 -167.84887686 97.28920037 -167.8367225 93.36929966 C-167.83395964 91.95288371 -167.83455992 90.53645627 -167.8389036 89.12004428 C-167.87267756 77.13719808 -166.88820032 66.31429438 -158.44921875 57.140625 C-150.20490419 49.34243136 -140.66723091 47.33811537 -129.72265625 47.5625 C-120.32144799 47.99817617 -113.54059466 51.71958651 -106.80859375 58.18359375 C-101.16233833 64.86631214 -97.52616034 72.84864772 -97.37484741 81.61593628 C-97.35609936 82.58751553 -97.3373513 83.55909477 -97.31803513 84.56011581 C-97.30251225 85.63066334 -97.28698936 86.70121086 -97.27099609 87.80419922 C-97.25122334 88.95235233 -97.23145058 90.10050545 -97.21107864 91.28345108 C-97.15785151 94.50463546 -97.10957888 97.72584381 -97.06438112 100.94714975 C-97.03488902 103.02665481 -97.00371308 105.10612907 -96.97217941 107.1856041 C-96.58478359 133.02062765 -96.45877155 158.8560009 -96.37353992 184.6935358 C-96.36327405 187.77559869 -96.35252072 190.8576595 -96.34160614 193.93972015 C-96.27435007 212.95848462 -96.20931294 231.97724224 -96.17285156 250.99609375 C-96.15452727 260.51656124 -96.12569811 270.03693461 -96.08484685 279.55733287 C-96.0638956 284.54434015 -96.0483349 289.53123022 -96.04603958 294.51828384 C-96.04389921 299.15336069 -96.02809374 303.78818534 -96.00164986 308.42318535 C-95.99445706 310.11711551 -95.9923558 311.8110762 -95.99575233 313.50501823 C-95.99964848 315.81631729 -95.98519381 318.12681058 -95.96621704 320.4380188 C-95.96125182 322.37353953 -95.96125182 322.37353953 -95.95618629 324.3481617 C-95.36500105 329.73422917 -93.58541683 332.86089205 -89.69921875 336.578125 C-84.08945194 340.61715711 -79.41185864 341.72577302 -72.57421875 340.828125 C-66.93883702 339.16005201 -62.65814539 337.00912175 -59.57421875 331.828125 C-56.94308923 325.96173924 -57.29398171 320.08708878 -57.31593323 313.784729 C-57.31225752 312.5615924 -57.30858182 311.33845581 -57.30479473 310.07825446 C-57.29654781 306.6905718 -57.2971828 303.30310078 -57.30152166 299.91542482 C-57.30400074 296.25885077 -57.29492581 292.60230378 -57.28713989 288.94573975 C-57.27510057 282.61069523 -57.26998725 276.27567585 -57.2692585 269.94062042 C-57.26793191 260.77032653 -57.2528116 251.60009358 -57.23376333 242.42982122 C-57.20292529 227.53688054 -57.17875895 212.64393832 -57.16088867 197.75097656 C-57.15981599 196.85980824 -57.15874331 195.96863993 -57.15763813 195.05046651 C-57.14582207 185.11152655 -57.1356162 175.17258598 -57.12719727 165.23364258 C-57.12412341 161.63134764 -57.1210346 158.02905272 -57.11791992 154.42675781 C-57.11715458 153.53788951 -57.11638924 152.64902121 -57.11560071 151.73321751 C-57.10250913 136.90041093 -57.07785528 122.06764842 -57.04417652 107.23487449 C-57.02391018 98.09073791 -57.01359387 88.94669566 -57.01616573 79.80253646 C-57.01720256 73.53336489 -57.00753563 67.26426779 -56.9895267 60.99512222 C-56.97950458 57.38071412 -56.97432885 53.76647081 -56.98229408 50.15205383 C-56.99083912 46.22775536 -56.97620071 42.3037319 -56.95948792 38.37945557 C-56.96569973 37.24539221 -56.97191155 36.11132885 -56.9783116 34.94289994 C-56.88647786 23.09139461 -53.74268242 12.76598844 -45.7578125 3.78515625 C-33.0485902 -8.25651094 -14.46467717 -9.26819128 0 0 Z " fill="#FEFEFE" transform="translate(532.57421875,171.171875)"/>
<path d="M0 0 C13.734193 10.88749196 22.63804684 27.0055806 26 44.125 C26.09375 47.0234375 26.09375 47.0234375 26 49.125 C26.825 48.66609375 27.65 48.2071875 28.5 47.734375 C47.07422878 37.86681596 66.33801251 35.0009702 86.8203125 40.73046875 C97.52679064 44.09098779 107.68365872 49.57683482 116 57.125 C116.68320312 57.72828125 117.36640625 58.3315625 118.0703125 58.953125 C132.17476928 72.14588686 138.6310003 90.60979128 139.29818726 109.56539917 C139.46352689 116.80989796 139.49352071 124.05453128 139.50611091 131.30054927 C139.51559301 134.96007857 139.54180293 138.61949053 139.56611633 142.27894592 C139.60951783 149.18453631 139.63822556 156.0901036 139.66143972 162.99578816 C139.68863407 170.86788068 139.73253577 178.7398536 139.77772844 186.61186016 C139.87019654 202.7828458 139.94204892 218.953853 140 235.125 C140.94029053 234.58012939 141.88058105 234.03525879 142.84936523 233.47387695 C144.10653133 232.74937853 145.36377849 232.02502078 146.62109375 231.30078125 C147.54649963 230.76378601 147.54649963 230.76378601 148.49060059 230.21594238 C167.44670825 219.31883146 185.79248828 216.6459992 207 222.125 C223.57867281 227.08482455 236.84460452 239.85289713 245.3984375 254.5234375 C251.36893657 265.70455393 254.14684354 277.52557741 254.16796875 290.15625 C254.1721582 290.95062973 254.17634766 291.74500946 254.18066406 292.5634613 C254.19063848 295.25068867 254.19039495 297.93775659 254.1875 300.625 C254.18709213 302.05224899 254.18709213 302.05224899 254.18667603 303.5083313 C254.10860172 364.70297219 252.0456849 426.2209644 246 487.125 C245.92587891 487.88171997 245.85175781 488.63843994 245.77539062 489.41809082 C240.77926942 540.40529203 232.71940941 591.52498966 208 637.125 C207.68353516 637.71780762 207.36707031 638.31061523 207.04101562 638.92138672 C192.71755115 665.59992881 171.51266729 689.40971929 147 707.125 C145.93394531 707.90101563 144.86789062 708.67703125 143.76953125 709.4765625 C135.77579118 715.14325765 127.50119117 720.26507534 119 725.125 C118.01821777 725.68985107 118.01821777 725.68985107 117.01660156 726.26611328 C84.66923508 744.68854393 47.71180153 752.57929293 11 756.125 C10.26249512 756.19847656 9.52499023 756.27195312 8.76513672 756.34765625 C4.18068252 756.78482459 -0.39854986 756.99609214 -5 757.125 C-5.98194336 757.15754883 -6.96388672 757.19009766 -7.97558594 757.22363281 C-50.49728119 758.45849577 -92.76729731 751.89842344 -133 738.125 C-133.79019531 737.8583252 -134.58039063 737.59165039 -135.39453125 737.31689453 C-145.02035111 734.03206213 -154.07787618 729.85015829 -163.06933594 725.13085938 C-164.90352854 724.1752608 -166.7495298 723.24855376 -168.6015625 722.328125 C-201.29615391 705.8245027 -233.16907014 679.5612899 -255 650.125 C-255.72944824 649.15361084 -255.72944824 649.15361084 -256.47363281 648.16259766 C-263.95585586 638.16909458 -270.89908862 628.01792965 -277 617.125 C-277.38188477 616.45549316 -277.76376953 615.78598633 -278.15722656 615.09619141 C-292.14178483 590.41453235 -301.20666125 563.4624721 -310.40625 536.74121094 C-312.90108111 529.50217925 -315.45026534 522.28233363 -318 515.0625 C-318.36717133 514.02112381 -318.36717133 514.02112381 -318.74176025 512.95870972 C-322.82899561 501.3675788 -326.99847922 489.80724184 -331.19000244 478.253479 C-335.80710927 465.51932825 -340.29520972 452.74297602 -344.73986816 439.94772339 C-348.10399698 430.27010714 -351.52906667 420.61931754 -355.078125 411.0078125 C-355.41727936 410.0882225 -355.75643372 409.16863251 -356.10586548 408.22117615 C-357.73605637 403.8061063 -359.37483486 399.39449574 -361.02685547 394.98754883 C-369.92617782 371.08774241 -376.14484485 347.40106319 -365 323 C-357.20390529 308.33081545 -344.51098218 297.741956 -328.97265625 292.0078125 C-308.83256936 286.55382808 -286.79651774 292.44797492 -268.99414062 301.97900391 C-256.92253994 308.91633173 -247.04972311 319.11351739 -238.32324219 329.82055664 C-237.5134491 330.81326065 -236.70365601 331.80596466 -235.86932373 332.82875061 C-234.94400848 333.96539406 -234.94400848 333.96539406 -234 335.125 C-233.99641747 333.3522415 -233.99641747 333.3522415 -233.99276257 331.5436697 C-233.93530071 303.43729101 -233.86249814 275.33098204 -233.77101372 247.22469324 C-233.75974666 243.75908947 -233.74860803 240.2934853 -233.73754883 236.82788086 C-233.73534514 236.13799289 -233.73314146 235.44810492 -233.730871 234.73731125 C-233.69557784 223.59269825 -233.67066878 212.44808531 -233.64965298 201.30343729 C-233.62782711 189.85290123 -233.59449343 178.40245102 -233.55129844 166.95197302 C-233.52742031 160.52677166 -233.50865607 154.10164963 -233.50238609 147.67640495 C-233.4963108 141.61976062 -233.47622278 135.56331914 -233.44572449 129.50675011 C-233.43698336 127.29257367 -233.43321347 125.07837068 -233.43499184 122.8641777 C-233.44313423 108.03882826 -233.19725609 93.49955653 -226.75 79.8125 C-226.44626465 79.14718262 -226.1425293 78.48186523 -225.82958984 77.79638672 C-223.14915497 72.10236338 -219.96348615 67.02303446 -216 62.125 C-215.03513672 60.88169922 -215.03513672 60.88169922 -214.05078125 59.61328125 C-202.33436405 45.47128414 -185.12021589 37.93702159 -167 36.125 C-149.75910781 34.84278262 -135.16684268 39.26561718 -120 47.125 C-119.87044922 46.16013672 -119.87044922 46.16013672 -119.73828125 45.17578125 C-116.87070858 26.73386896 -107.91493197 9.43928238 -92.88671875 -1.9296875 C-63.24222791 -21.9066245 -28.64148335 -21.58726214 0 0 Z M-75.25 34.875 C-80.10909529 41.75982166 -83.12067653 49.84795376 -83.13028526 58.280056 C-83.13572178 59.85212991 -83.13572178 59.85212991 -83.14126813 61.4559629 C-83.14019988 62.60613906 -83.13913163 63.75631523 -83.13803101 64.94134521 C-83.14085229 66.1641841 -83.14367357 67.38702298 -83.14658034 68.64691758 C-83.15348081 72.04292216 -83.15595272 75.4388789 -83.15663147 78.83488703 C-83.15847133 82.49690522 -83.16607833 86.1589116 -83.17311096 89.82092285 C-83.18463745 96.16800539 -83.19288137 102.51508528 -83.19923019 108.86217499 C-83.20955657 118.89578502 -83.23012035 128.92936195 -83.25234985 138.96295166 C-83.25982961 142.39582432 -83.26724334 145.82869713 -83.27463722 149.26156998 C-83.27741307 150.54846303 -83.27741307 150.54846303 -83.280245 151.86135392 C-83.30117325 161.62794366 -83.32000082 171.39453706 -83.33789062 181.16113281 C-83.33952881 182.05395675 -83.34116699 182.9467807 -83.34285481 183.86665991 C-83.36913626 198.33308186 -83.38778181 212.79950636 -83.40448253 227.26594207 C-83.42190652 242.11902034 -83.45075511 256.97204855 -83.4893719 271.82508683 C-83.51276344 280.98597989 -83.52676571 290.14679133 -83.52869953 299.30771449 C-83.53080981 305.58717524 -83.54374656 311.86655483 -83.56517886 318.14597914 C-83.57719938 321.76822204 -83.5843649 325.39030383 -83.57846642 329.01256561 C-83.57218225 332.94205917 -83.58900705 336.87126326 -83.60800171 340.80072021 C-83.60247201 341.94197349 -83.59694232 343.08322677 -83.59124506 344.25906348 C-83.64603184 350.81921852 -83.79112475 357.40784263 -88.31023633 362.64277625 C-93.45220734 367.28830242 -98.95079975 368.61917038 -105.6953125 368.4375 C-111.13673691 367.69967974 -115.35868985 365.1745426 -118.9375 361.0625 C-122.07556634 356.59313279 -122.13014334 353.45151881 -122.15148926 348.09565735 C-122.15572167 347.37462599 -122.15995408 346.65359464 -122.16431475 345.91071385 C-122.17736637 343.48515157 -122.18337302 341.05962224 -122.18945312 338.6340332 C-122.19739772 336.89508871 -122.20578585 335.15614619 -122.21458435 333.41720581 C-122.2326889 329.65559277 -122.24769215 325.89398426 -122.26036072 322.13234901 C-122.28073087 316.11182121 -122.30839305 310.09133988 -122.33703613 304.07084656 C-122.39215241 292.27762278 -122.43998529 280.48437484 -122.48697662 268.69111633 C-122.61014073 237.92115809 -122.7472048 207.1513674 -122.94764519 176.38180292 C-122.98234751 171.02782085 -123.01364435 165.67383564 -123.0418458 160.31981558 C-123.08311915 152.5366229 -123.13666586 144.75376223 -123.21929407 136.97088856 C-123.25544486 133.55789185 -123.28390946 130.14536069 -123.29942322 126.73217201 C-123.31732328 123.08034801 -123.35944592 119.42959988 -123.40820312 115.77807617 C-123.40784561 114.74425245 -123.4074881 113.71042873 -123.40711975 112.64527702 C-123.62600616 100.92394466 -127.68396995 91.96472098 -135.5546875 83.44140625 C-142.98717036 76.3112014 -152.12016284 74.49604487 -162.15258789 74.65893555 C-172.17130582 75.12383848 -178.6112917 78.76315498 -185.796875 85.62109375 C-192.25642668 92.96253458 -194.12103347 100.77701881 -194.13028526 110.38231373 C-194.13572178 112.24681587 -194.13572178 112.24681587 -194.14126813 114.14898473 C-194.14027164 115.52036916 -194.13918953 116.89175352 -194.13803101 118.26313782 C-194.14045035 119.72620682 -194.14331302 121.18927514 -194.14658034 122.6523425 C-194.15432184 126.66897307 -194.15595213 130.68558654 -194.15663147 134.70222366 C-194.15847327 139.03566943 -194.1660813 143.36910525 -194.17311096 147.70254517 C-194.18463099 155.21131071 -194.19287823 162.72007401 -194.19923019 170.2288456 C-194.20956145 182.09855756 -194.23012607 193.96824159 -194.25234985 205.8379364 C-194.25982934 209.89974299 -194.26724309 213.96154969 -194.27463722 218.02335644 C-194.27741307 219.54595089 -194.27741307 219.54595089 -194.280245 221.09930483 C-194.30116797 232.65140558 -194.31999854 244.20350942 -194.33789062 255.75561523 C-194.33952881 256.81152968 -194.34116699 257.86744412 -194.34285481 258.95535596 C-194.3691433 276.06901862 -194.38778554 293.18268343 -194.40448253 310.29635773 C-194.42190461 327.86943936 -194.45075019 345.44247866 -194.4893719 363.01552647 C-194.51276487 373.85328359 -194.52676584 384.69097169 -194.52869953 395.52875426 C-194.5308093 402.95615022 -194.54374184 410.38347753 -194.56517886 417.81084267 C-194.57720255 422.09547821 -194.58436271 426.37997747 -194.57846642 430.66462898 C-194.57316165 434.58971555 -194.58167884 438.51452437 -194.60102279 442.43956461 C-194.6055883 443.85675626 -194.60514162 445.27397517 -194.59907441 446.69116119 C-194.5396904 461.92615397 -194.5396904 461.92615397 -198 468.125 C-201.38567273 471.25623591 -204.40100004 472.02992064 -208.9375 472.75 C-214.22557485 472.38177815 -217.5413147 470.01474313 -221 466.125 C-226.31052512 456.03709481 -229.72957564 444.80308746 -233.54754639 434.09100342 C-248.59544402 388.371138 -248.59544402 388.371138 -274 348.125 C-274.62132812 347.30644531 -275.24265625 346.48789062 -275.8828125 345.64453125 C-283.74348345 336.29004276 -296.43016647 328.95894264 -308.734375 327.88671875 C-316.24442286 327.70188597 -321.89005156 328.28834736 -327.52734375 333.55078125 C-332.97763862 339.66459027 -333.91981314 346.16632449 -333.60546875 354.1171875 C-332.68199769 364.45591299 -328.35316228 374.28518467 -324.79803467 383.94995117 C-323.65466428 387.06621482 -322.52599069 390.18775286 -321.39607239 393.30891418 C-319.10919527 399.62523273 -316.81492524 405.938804 -314.5065918 412.24731445 C-306.85099232 433.17896332 -299.45810618 454.20211168 -292.07177734 475.22998047 C-290.18381054 480.60411262 -288.28999842 485.97616589 -286.39453125 491.34765625 C-282.13652331 503.42191323 -277.88778777 515.49853275 -273.74609375 527.61328125 C-273.4773645 528.39915619 -273.20863525 529.18503113 -272.9317627 529.99472046 C-271.66057797 533.71506019 -270.39293249 537.43655027 -269.13134766 541.16015625 C-264.51602413 554.74926256 -259.8439526 568.18957113 -253.3125 581 C-252.79703613 582.01884277 -252.28157227 583.03768555 -251.75048828 584.08740234 C-239.36418641 608.23558207 -223.66558781 629.46994059 -205 649.125 C-204.1028125 650.07632813 -203.205625 651.02765625 -202.28125 652.0078125 C-195.90982513 658.5853717 -189.11320025 664.26571402 -181.81054688 669.75439453 C-180.03885814 671.09558392 -178.29214241 672.46452945 -176.546875 673.83984375 C-121.16296487 716.78858586 -43.80101803 724.8348853 23.7890625 717.10546875 C34.34064986 715.75036071 44.68464864 713.70975713 55 711.125 C55.76763672 710.93711914 56.53527344 710.74923828 57.32617188 710.55566406 C97.25266077 700.56513763 132.9846757 675.54756922 158 643.125 C158.64171143 642.29790527 158.64171143 642.29790527 159.29638672 641.45410156 C176.161895 619.57813439 187.53150585 595.68420537 195 569.125 C195.2587793 568.23925293 195.51755859 567.35350586 195.78417969 566.44091797 C204.96056442 534.3468322 206.53721159 499.68642581 209.25 466.5625 C209.32704163 465.62373016 209.40408325 464.68496033 209.48345947 463.71774292 C211.97535569 432.90301273 213.3931899 402.05280187 214.43261719 371.15966797 C214.55939879 367.39710143 214.69128009 363.63477248 214.828125 359.87255859 C215.53432756 340.43446072 216.13856773 320.99491823 216.25580978 301.54307938 C216.26739946 299.81458232 216.28376262 298.08610949 216.30531693 296.35770798 C216.45339659 283.52067775 215.88647676 274.01926138 206.515625 264.30078125 C200.19671492 258.83551275 193.37967301 257.42453 185.15234375 257.7421875 C172.99178976 259.21893383 164.36534186 263.91181375 156.421875 273.0234375 C152.62881319 278.62966622 150.32191395 284.4649032 148.9453125 291.0625 C148.6995195 292.20706665 148.6995195 292.20706665 148.44876099 293.37475586 C146.24113232 304.18804689 145.11406077 315.16823276 143.875 326.125 C143.62193816 328.2995776 143.36803534 330.4740575 143.11328125 332.6484375 C142.86435281 334.78643151 142.61565206 336.92445203 142.3671875 339.0625 C142.24639832 340.09890625 142.12560913 341.1353125 142.00115967 342.203125 C141.4558499 346.93673369 140.93858061 351.66775368 140.51660156 356.4140625 C140.44007355 357.22625244 140.36354553 358.03844238 140.28469849 358.87524414 C140.14822403 360.34718675 140.02403598 361.82035822 139.91622925 363.29467773 C139.42449842 368.46852052 137.86548545 372.8158836 135 377.125 C128.56987535 382.24285431 122.97161229 382.74935005 115 382.125 C110.46894939 380.99844994 106.81950849 378.88434466 104 375.125 C101.82025825 369.18090571 101.71648456 363.69208936 101.74171448 357.40397644 C101.73803877 356.33516041 101.73436307 355.26634437 101.73057598 354.16513997 C101.72060871 350.58945534 101.72474433 347.01392662 101.72875977 343.43823242 C101.72437198 340.87217544 101.71906963 338.30611989 101.71292114 335.74006653 C101.70089398 330.21644239 101.69576914 324.69284706 101.69503975 319.16921043 C101.69371179 311.172134 101.67857956 303.17512726 101.65954458 295.17807547 C101.62872167 282.18798017 101.60454821 269.19788309 101.58666992 256.20776367 C101.58559724 255.43080422 101.58452456 254.65384476 101.58341938 253.85334108 C101.57160289 245.18785313 101.56139663 236.52236447 101.55297852 227.85687256 C101.54990459 224.71569822 101.54681579 221.5745239 101.54370117 218.43334961 C101.54255316 217.27069999 101.54255316 217.27069999 101.54138196 216.0845625 C101.52828588 203.14562133 101.50362659 190.20673063 101.46995777 177.26782686 C101.44970482 169.29441876 101.43937326 161.32111873 101.44194698 153.34768472 C101.44310744 147.23347116 101.42891804 141.11938102 101.40913773 135.00520134 C101.40354396 132.50187543 101.40304768 129.99853204 101.40807533 127.49520493 C101.41422824 124.07226968 101.40196341 120.64986375 101.38526917 117.22697449 C101.39148098 116.24144929 101.3976928 115.25592409 101.40409285 114.24053448 C101.30831801 103.42929772 98.4404782 94.00718039 91.02734375 85.9921875 C82.58598387 77.92302162 74.64479434 75.51499648 63.18969727 75.65185547 C57.41585597 75.89004493 52.88841735 76.91603892 48 80.125 C47.31808594 80.54910156 46.63617187 80.97320312 45.93359375 81.41015625 C37.49858741 87.15620421 31.73447702 95.056906 29.36378598 105.02523017 C27.88508654 113.56027173 28.46333582 122.51556856 28.50170898 131.1418457 C28.49788188 133.57558016 28.4922595 136.00931235 28.48498535 138.44303894 C28.47306991 143.66487288 28.47301584 148.88656194 28.48357964 154.10839272 C28.49858335 161.66570148 28.48855762 169.22282381 28.47206045 176.78012206 C28.44566014 189.05434751 28.4347384 201.32853089 28.43579102 213.6027832 C28.43584934 214.33583348 28.43590766 215.06888375 28.43596775 215.82414766 C28.43623362 218.7946017 28.43655091 221.76505572 28.43693101 224.73550974 C28.43789843 232.92336448 28.43656732 241.11121795 28.43383789 249.29907227 C28.433598 250.03273666 28.43335811 250.76640106 28.43311094 251.52229772 C28.42870296 263.75963639 28.41246778 275.99693603 28.3886171 288.23425168 C28.37456237 295.77271426 28.37165206 303.31102831 28.38323999 310.84949597 C28.39143422 316.62143512 28.38470518 322.39328016 28.37255096 328.16520882 C28.3701425 330.5311259 28.37288833 332.89705467 28.38115883 335.26295853 C28.39177166 338.49180105 28.38403465 341.72010377 28.37181091 344.94892883 C28.37938697 345.88530868 28.38696302 346.82168853 28.39476866 347.78644353 C28.34199393 354.35837428 27.37517526 359.19561718 23.125 364.4375 C17.95488977 368.54317577 12.61953176 368.61556845 6.234375 368.5 C1.50484409 367.95164859 -1.61348366 366.45312813 -5 363.125 C-9.11688159 357.84046486 -10.12394225 352.40357279 -10.12749195 345.85527611 C-10.1304996 344.80708588 -10.13350725 343.75889565 -10.13660604 342.67894208 C-10.13485567 341.53372512 -10.13310529 340.38850816 -10.13130188 339.20858765 C-10.13447545 337.37622273 -10.13447545 337.37622273 -10.13771313 335.50684035 C-10.14163492 332.82599858 -10.14373214 330.14522741 -10.14274788 327.4643898 C-10.14115323 323.10202377 -10.14636134 318.73968059 -10.15237427 314.37731934 C-10.16048402 308.04280987 -10.16543004 301.70830443 -10.16866493 295.37379074 C-10.17416632 285.35607971 -10.19106914 275.33840263 -10.21000671 265.32070923 C-10.21636339 261.89188963 -10.22267186 258.46306994 -10.22898388 255.03425026 C-10.23056764 254.17734079 -10.2321514 253.32043131 -10.23378316 252.43755489 C-10.25171761 242.68444658 -10.26794455 232.93133588 -10.28295898 223.17822266 C-10.28502279 221.84101539 -10.28502279 221.84101539 -10.28712829 220.47679384 C-10.30904673 206.03832447 -10.31981189 191.59986387 -10.32732973 177.16138081 C-10.3354081 162.32971737 -10.35872211 147.49812893 -10.3952834 132.66650832 C-10.41727843 123.52318961 -10.42698224 114.38002523 -10.42078307 105.23668142 C-10.41760214 98.96606746 -10.42898031 92.69558505 -10.45167748 86.4250118 C-10.46431178 82.81044471 -10.47055602 79.19617077 -10.45926094 75.58159256 C-10.44715002 71.65532692 -10.46607147 67.72954601 -10.48774719 63.80331421 C-10.47930466 62.67148157 -10.47086212 61.53964894 -10.46216375 60.37351835 C-10.58414624 48.39209773 -14.32008788 39.04577433 -22.625 30.44140625 C-28.30342461 25.17046119 -35.23482365 21.78586607 -43 21.125 C-44.175625 21.021875 -45.35125 20.91875 -46.5625 20.8125 C-58.06331508 21.01117051 -68.0971925 26.07154462 -75.25 34.875 Z " fill="#010101" transform="translate(559,143.875)"/>
</svg>
